<mxfile host="app.diagrams.net" modified="2023-11-08T02:50:07.057Z" agent="Mozilla/5.0 (Windows NT 10.0; Win64; x64) AppleWebKit/537.36 (KHTML, like Gecko) Chrome/118.0.0.0 Safari/537.36" version="22.0.8" etag="qYw92LlmL9R63R42-fRy" type="github">
  <diagram name="Page-1" id="vZyTeamasRuwzelAYNXd">
    <mxGraphModel>
      <root>
        <mxCell id="0" />
        <mxCell id="1" parent="0" />
      </root>
    </mxGraphModel>
  </diagram>
</mxfile>
